PathFileType	4	(X/Y/Z)	50_2_54_p0_0-473_filt_butterworth.trc
DataRate	CameraRate	NumFrames	NumMarkers	Units	OrigDataRate	OrigDataStartFrame	OrigNumFrames
40.0	40.0	5	27	m	40.0	236	473
Frame#	Time	RHip			RKnee			RAnkle			RBigToe			RSmallToe			RHeel			LHip			LKnee			LAnkle			LBigToe			LSmallToe			LHeel			Neck			Head			Nose			RShoulder			RElbow			RWrist			RThumb			RIndex			RPinky			LShoulder			LElbow			LWrist			LThumb			LIndex			LPinky			
		X1	Y1	Z1	X2	Y2	Z2	X3	Y3	Z3	X4	Y4	Z4	X5	Y5	Z5	X6	Y6	Z6	X7	Y7	Z7	X8	Y8	Z8	X9	Y9	Z9	X10	Y10	Z10	X11	Y11	Z11	X12	Y12	Z12	X13	Y13	Z13	X14	Y14	Z14	X15	Y15	Z15	X16	Y16	Z16	X17	Y17	Z17	X18	Y18	Z18	X19	Y19	Z19	X20	Y20	Z20	X21	Y21	Z21	X22	Y22	Z22	X23	Y23	Z23	X24	Y24	Z24	X25	Y25	Z25	X26	Y26	Z26	X27	Y27	Z27	
236	5.9	0.3046991056570725	0.5821406441826896	1.0039754667612726	0.28542550822097673	0.1924987354997325	0.9240257168568119	0.3117878216191372	-0.27448910306990865	0.9695153456044117	0.2625850684392144	-0.2870065804263515	0.8099710161327515	0.3305712373322143	-0.284865669222628	0.8081879085133652	0.28787653422651205	-0.3635696308577182	1.0692743954247121	0.12315913537707138	0.5970864776378265	0.980765304789555	0.11814425666895488	0.17506272413390978	0.9679147882736358	0.10181138279270421	-0.2516885797332793	0.9731186213860153	0.09832336367917435	-0.25771633246849546	0.8053340917878341	0.03954738053575034	-0.26114615360331067	0.8378051695977725	0.1137154794302731	-0.34136264869881666	1.019045737854349	0.2081989514122224	1.0571597284529535	1.0101475825787276	0.15651962093881377	1.3279705968994806	0.8461451727007079	0.16747646266019584	1.127848676546688	0.8883969699329555	0.34357886545765204	1.0803315716385293	0.9577735262768526	0.540224901613737	0.8697445636469805	0.9226123692140118	0.3207449225153241	0.7919150839497799	0.8857609992383755	0.17199807392785338	0.8182397063687681	0.9190017255287724	0.14650784200670386	0.7854963749357635	0.9190292859926084	0.17616234845661446	0.6991945834708002	0.9254077767235805	0.06230201525641511	1.061968986497298	1.0388675413946953	-0.08194114297482313	0.8377365064006941	1.12576521347982	0.052635822295548	0.7838962897269868	0.9449305253173961	0.15042606690246813	0.8148820753027498	0.9051054440079278	0.15958747376454466	0.7844927911480694	0.8755354117649559	0.14868771588916818	0.7068028897382272	0.9053682676208326	
237	5.925	0.30506554319428575	0.5797016132346817	1.0050973645507848	0.28349310245132836	0.19344745410000863	0.9229956500724488	0.31174860795561365	-0.2742191265991689	0.9694908529894961	0.26260273080352536	-0.287011967268694	0.8099136138721849	0.3328649757888291	-0.28450500860557393	0.8076378287818531	0.28784546461583754	-0.3632742813673773	1.0691672977461086	0.12353142649128374	0.5946663802758512	0.9825684800682	0.1177150511844184	0.1750696046404499	0.9691757250795969	0.10176434553031129	-0.2509345729535213	0.9732213927578844	0.09915631917693227	-0.25785269492644597	0.8054954742837012	0.039575593586238196	-0.26114204816959286	0.8377675136568907	0.1136502765825472	-0.3409977451913359	1.0188348098028357	0.20912219621139563	1.054199174819081	1.0010192741538775	0.15042234861434828	1.323827347670285	0.8346633578897676	0.16233464066134168	1.1216838663578756	0.8841149993354205	0.3421008951158711	1.0793510762707723	0.9562905737832508	0.5373953550627156	0.8584803610251285	0.9306857358547098	0.31834846472857614	0.787443115284474	0.8941197742639844	0.16675046185780407	0.8092746620838398	0.9350326744200005	0.14471126308720034	0.7868754389654369	0.9272707668666622	0.16561701648480556	0.6995599521610899	0.935817713268988	0.06158199742235197	1.0617839128966757	1.0340311683862775	-0.07667305200375359	0.8342685471233215	1.1272048627671167	0.05796267552597587	0.7749517023818048	0.9627824859790084	0.15476101871035863	0.8055371032325425	0.9174320991741427	0.16230940724891105	0.7757611999492762	0.8856949294298918	0.15265139106142006	0.7014104157683175	0.9149772084970199	
238	5.95	0.30546639754538324	0.5787384902862123	1.0063142199910269	0.2817032321432729	0.19495129476609874	0.9221479474860447	0.31172233794469795	-0.2739576506482238	0.9694606352387317	0.2626222238798034	-0.28697280908724193	0.8098526081840124	0.33513063604930543	-0.28439749367609685	0.8073047253784995	0.28776627645714725	-0.3632598265141617	1.0693391691940588	0.12393845915122015	0.5929729951867618	0.9852083573019099	0.11725282398600889	0.17543799323215192	0.9703838974392893	0.10171985419093041	-0.2503144055696553	0.9732906475008539	0.09966522961964429	-0.25795583975550607	0.8056135225356895	0.039595847752490095	-0.26114435926672613	0.8377135687373884	0.11352181699012005	-0.3407338678729694	1.0185581978810232	0.2097811779647366	1.0502615089400118	0.9960463294604615	0.14433213510997633	1.319531353752501	0.8200461877936833	0.15811695307097506	1.115316516911618	0.8769699797291978	0.3419177947491804	1.0779030832357024	0.9551855072034277	0.5353032444594186	0.849169405282133	0.9413977959611893	0.3189282962506353	0.7843988685499295	0.9018922651431549	0.1679182748224681	0.8022280753812605	0.9519948353417851	0.14630546245068565	0.7903558622515149	0.9313431332892569	0.16013263261255734	0.7020714300582614	0.9428079543804928	0.060492726761038146	1.0612745253421831	1.0285137214426125	-0.0729495901630697	0.8328681706091455	1.129839707689026	0.06282263126708364	0.7704618544243775	0.9795528349797125	0.15629786651336555	0.8008575548318715	0.9302743558538347	0.16314708169349923	0.771696317380749	0.8974683555824371	0.15500736072402993	0.7002540742488499	0.9247354172739766	
239	5.975	0.3059874265424645	0.5790220700973584	1.007519376637732	0.2800225366414561	0.19676876629795526	0.9216584834510866	0.31169920456294625	-0.2738786588537387	0.9694437692756018	0.26263764360030695	-0.2869480215397293	0.8098271534560355	0.33674675454393244	-0.2839327940515165	0.8067664118325495	0.28758198984636735	-0.36368505901112064	1.069846261817602	0.12447752003309057	0.5920509281107637	0.9885512428179447	0.11683206389253506	0.17602524912805972	0.9714116807762269	0.10170878660424026	-0.25002819482413824	0.973351134948261	0.0998122510416963	-0.25821005781426903	0.8059460248177375	0.03960941007250038	-0.26112070772256485	0.8376278902750733	0.11321332149146558	-0.3407703761895281	1.018462428623837	0.2096878091383394	1.044304160508232	0.9953927565993543	0.13935644996469668	1.3141060471289927	0.803233018557171	0.15555576271337926	1.1069111842886366	0.8699988498671622	0.3419858929615178	1.0758652393781563	0.9531239236295213	0.5331156270684256	0.8436195204689209	0.952523947471692	0.32151365162576173	0.7818825164590901	0.9114016347788902	0.1730693673427256	0.7958050970922759	0.9707595680602259	0.14863097253926466	0.7921604821995271	0.9359584448828628	0.16061689584187536	0.7007272565761353	0.9536371402046329	0.059183767054085255	1.061245637883618	1.0205766515398151	-0.06960898831478098	0.8324727946229171	1.1384719225104192	0.06779623575911077	0.7670385837492587	0.9959491419648765	0.1579807811089542	0.7967729955210664	0.945114069156058	0.16425634008515005	0.7691498715982985	0.9117417923071378	0.1579750817845551	0.6995114255415239	0.9351253912690498	
240	6.0	0.306665619633409	0.5800827840609792	1.008581211298593	0.27855351405514045	0.19845493040921308	0.9216541087764961	0.31167677082662554	-0.2739093316447233	0.9694389900479259	0.26265119084153177	-0.28704204070246053	0.8098429974924156	0.33733546963248007	-0.28243713310859747	0.8054009199145888	0.2873414910559662	-0.36425668150304524	1.0702872344526664	0.1251218330631037	0.5918533816533885	0.9925210671595074	0.1164506610774197	0.17668168004512558	0.9722736578655372	0.10170798870685906	-0.25009650040886505	0.9733580507421403	0.09974277450134972	-0.25850770305548576	0.8063411892121012	0.039616102030723514	-0.2610621299604862	0.8374978891552464	0.11275749485690158	-0.34105013497534314	1.0186508015041114	0.2087851068751457	1.0366509879432715	0.9963424341247844	0.136109927160289	1.3066176619141507	0.7865302814515815	0.15465450456742946	1.0962364652759486	0.86637985426559	0.34174140671666686	1.0735772287465424	0.9491073342181631	0.5305975581368303	0.8422480465310523	0.9635276935321013	0.32489307257984756	0.780437882571114	0.9209937887150277	0.18089441256907546	0.7905256913572977	0.9878935396905097	0.15045045625002973	0.7914213737705913	0.9425048266848979	0.16519868573936025	0.6954597650415748	0.968061382134666	0.0576605467333097	1.0618157553704064	1.0110808786387309	-0.06587523704457461	0.8324888367910613	1.1518991712062436	0.07259960237741472	0.7634698342765853	1.011011561541416	0.16140514815180693	0.7920775918061498	0.9605813986682712	0.16652822724130764	0.7680931612233302	0.9252450792357797	0.16158842971267767	0.6974090575487893	0.9473949961095842	
